<?xml version="1.0" encoding="UTF-8" standalone="no"?>
<!DOCTYPE svg PUBLIC "-//W3C//DTD SVG 1.1//EN" "http://www.w3.org/Graphics/SVG/1.1/DTD/svg11.dtd">
<svg width="100%" height="100%" viewBox="0 0 92 83" version="1.1" xmlns="http://www.w3.org/2000/svg" xmlns:xlink="http://www.w3.org/1999/xlink" xml:space="preserve" xmlns:serif="http://www.serif.com/" style="fill-rule:evenodd;clip-rule:evenodd;stroke-linejoin:round;stroke-miterlimit:2;">
    <g transform="matrix(1,0,0,1,26.2105,71.2449)">
        <path d="M0,-28.983C-4.307,-26.202 -6.48,-23.384 -6.502,-23.356L-6.772,-23.002L-6.857,-23.107L-24.042,-12.404L-10.852,-5.8L-20.58,0.228L-7.676,3.383L0.986,5.619C-2.806,2.383 -2.339,-1.086 -2.199,-1.903C-1.301,-7.133 -3.631,-9.385 -2.191,-9.562C-3.863,-14.156 -3.481,-18.74 -1.122,-22.197C1.087,-25.438 4.761,-27.296 8.955,-27.296C15.538,-27.296 18.783,-22.927 19.751,-21.326C19.752,-21.327 19.752,-21.328 19.753,-21.329L19.753,-34.602C10.619,-34.602 3.97,-31.546 0,-28.983" style="fill:rgb(103,193,79);fill-rule:nonzero;"/>
    </g>
    <g transform="matrix(0.43716,0.899384,0.899384,-0.43716,17.2745,76.202)">
        <path d="M-0.865,1.822C-0.865,1.822 5.394,8.486 5.463,8.895C5.463,8.895 1.302,6.912 -0.865,8.046L-9.344,-8.405L-0.865,1.822Z" style="fill:rgb(49,108,36);fill-rule:nonzero;"/>
    </g>
    <g transform="matrix(1,0,0,1,15.3588,63.1967)">
        <path d="M0,2.248L8.701,6.604C9.314,4.741 10.458,2.176 10.458,2.176C10.458,2.176 9.36,-0.544 8.661,-1.513L-13.191,-4.356L0,2.248Z" style="fill:rgb(49,108,36);fill-rule:nonzero;"/>
    </g>
    <g transform="matrix(-0.971383,-0.237521,-0.237521,0.971383,4.94723,68.8324)">
        <path d="M-25.73,3.1L0.374,3.1" style="fill:none;fill-rule:nonzero;"/>
    </g>
    <g transform="matrix(0,1,1,0,35.2976,55.188)">
        <path d="M4.513,-4.513C7.906,-4.513 10.656,-2.493 10.656,0C10.656,2.492 7.906,4.513 4.513,4.513C1.12,4.513 -1.63,2.492 -1.63,0C-1.63,-2.493 1.12,-4.513 4.513,-4.513" style="fill:rgb(25,53,17);fill-rule:nonzero;"/>
    </g>
    <g transform="matrix(0,1,1,0,33.9921,56.6178)">
        <path d="M1.305,-1.305C2.287,-1.305 3.082,-0.72 3.082,0.001C3.082,0.722 2.287,1.305 1.305,1.305C0.323,1.305 -0.472,0.722 -0.472,0.001C-0.472,-0.72 0.323,-1.305 1.305,-1.305" style="fill:white;fill-rule:nonzero;"/>
    </g>
    <g transform="matrix(0,1,1,0,29.0381,66.9376)">
        <path d="M3.196,-3.196C4.493,-3.196 5.544,-1.765 5.544,-0.001C5.544,1.765 4.493,3.196 3.196,3.196C1.899,3.196 0.848,1.765 0.848,-0.001C0.848,-1.765 1.899,-3.196 3.196,-3.196" style="fill:rgb(253,213,181);fill-rule:nonzero;"/>
    </g>
    <g transform="matrix(1,0,0,1,28.8293,47.3814)">
        <path d="M0,30.482L-24.981,24.374L-14.901,18.128L-28.089,11.526L-9.583,0L-9.214,0.593L-26.661,11.459L-13.47,18.063L-23.199,24.091L-1.205,29.468" style="fill:rgb(25,53,17);fill-rule:nonzero;"/>
    </g>
    <g transform="matrix(0.998863,-0.0476737,-0.0476737,-0.998863,17.366,49.1885)">
        <path d="M-0.678,-0.177C-8.733,12.967 -1.377,27.988 -1.302,28.138L-0.678,27.826C-0.751,27.679 -7.931,12.996 -0.083,0.188L-0.678,-0.177Z" style="fill:rgb(25,53,17);fill-rule:nonzero;"/>
    </g>
    <g transform="matrix(1,0,0,1,45.9639,60.6486)">
        <path d="M0,20.999C-4.795,20.999 -20.569,20.301 -22.188,11.322C-22.792,7.975 -21.086,5.371 -20.566,4.673C-20.88,3.946 -21.585,2.16 -22.232,0.231L-21.546,0C-20.835,2.12 -20.058,4.054 -19.818,4.572L-19.722,4.78L-19.869,4.956C-19.892,4.983 -22.108,7.689 -21.475,11.193C-21.091,13.324 -18.408,20.275 0,20.275L0,20.999Z" style="fill:rgb(25,53,17);fill-rule:nonzero;"/>
    </g>
    <g transform="matrix(1,0,0,1,30.4359,38.4166)">
        <path d="M0,-8.035C-5.959,-14.588 -13.443,-16.394 -15.107,-16.725C-17.544,-1.857 -12.24,6.88 -10.989,8.69C-10.259,7.828 -8.168,5.564 -4.632,3.276C-2.37,1.813 0.742,0.194 4.671,-0.953C3.39,-3.738 1.799,-6.041 0.079,-7.949L0,-7.949L0,-8.035Z" style="fill:rgb(245,224,151);fill-rule:nonzero;"/>
    </g>
    <g transform="matrix(-0.979224,0.202781,0.202781,0.979224,18.4102,48.2926)">
        <path d="M-0.648,-23.804C1.76,-19.075 5.27,-9.609 1.376,0.154L-0.648,-0.591C-0.267,-1.455 0.664,-3.864 1.096,-7.598C1.52,-11.278 1.491,-16.892 -0.648,-23.804" style="fill:rgb(49,108,36);fill-rule:nonzero;"/>
    </g>
    <g transform="matrix(1,0,0,1,30.5153,29.3223)">
        <path d="M0,1.145L-0.079,1.145L-0.079,1.059C-6.038,-5.493 -13.522,-7.3 -15.186,-7.631C-15.186,-7.631 -2.522,-3.379 2.645,8.776C3.272,8.554 3.915,8.339 4.591,8.142C3.31,5.357 1.72,3.053 0,1.145" style="fill:rgb(254,254,184);fill-rule:nonzero;"/>
    </g>
    <g transform="matrix(0,-1,-1,0,45.9638,62.0806)">
        <path d="M-3.763,-3.763C-2.375,-3.763 -1.25,-2.078 -1.25,0C-1.25,2.078 -2.375,3.763 -3.763,3.763C-5.151,3.763 -6.276,2.078 -6.276,0C-6.276,-2.078 -5.151,-3.763 -3.763,-3.763" style="fill:rgb(25,53,17);fill-rule:nonzero;"/>
    </g>
    <g transform="matrix(1,0,0,1,45.9615,56.3674)">
        <path d="M0,-6.448C-0.968,-8.049 -4.213,-12.419 -10.796,-12.419C-14.99,-12.419 -18.664,-10.561 -20.873,-7.32C-23.232,-3.862 -23.614,0.721 -21.942,5.316L-20.941,5.971L-21.127,5.498C-22.901,0.976 -22.598,-3.553 -20.296,-6.927C-18.218,-9.974 -14.756,-11.721 -10.796,-11.721C-3.289,-11.721 -0.432,-5.828 -0.314,-5.577L-0.219,-5.375L0.002,-5.375L0.002,-6.451C0.001,-6.45 0.001,-6.449 0,-6.448" style="fill:rgb(25,53,17);fill-rule:nonzero;"/>
    </g>
    <g transform="matrix(1,0,0,1,25.8043,27.44)">
        <path d="M0,14.253C-3.536,16.541 -5.627,18.805 -6.358,19.666C-7.609,17.856 -12.913,9.119 -10.475,-5.748C-8.323,-5.321 3.574,-2.43 9.302,10.024C5.374,11.17 2.261,12.79 0,14.253M-10.711,-6.5L-11.047,-6.55L-11.105,-6.214C-12.645,2.787 -11.358,9.548 -10.008,13.634C-8.538,18.08 -6.722,20.362 -6.645,20.457L-6.365,20.803L-6.096,20.449C-6.074,20.421 -3.901,17.603 0.406,14.822C4.376,12.259 11.026,9.203 20.159,9.203L20.159,8.505C16.337,8.505 12.939,9.031 9.983,9.833C3.567,-4.251 -10.567,-6.479 -10.711,-6.5" style="fill:rgb(25,53,17);fill-rule:nonzero;"/>
    </g>
    <g transform="matrix(1,0,0,1,45.9636,18.8582)">
        <path d="M0,3.484C6.922,3.484 12.861,6.283 14.83,10.292L14.83,2.157C14.83,-2.786 8.177,-6.808 0,-6.808C-8.177,-6.808 -14.83,-2.786 -14.83,2.157L-14.83,10.292C-12.861,6.283 -6.922,3.484 0,3.484" style="fill:rgb(242,243,251);fill-rule:nonzero;"/>
    </g>
    <g transform="matrix(1,0,0,1,39.5634,13.2755)">
        <path d="M0,-7.343C0.451,-7.343 0.848,-7.124 1.101,-6.79C2.794,-7.172 4.568,-7.374 6.4,-7.374C8.232,-7.374 10.006,-7.172 11.7,-6.79C11.953,-7.124 12.35,-7.343 12.801,-7.343C13.566,-7.343 14.186,-6.723 14.186,-5.958C14.186,-5.192 13.566,-4.572 12.801,-4.572C12.036,-4.572 11.416,-5.192 11.416,-5.958C11.416,-6.019 11.426,-6.077 11.434,-6.137C9.825,-6.49 8.14,-6.676 6.4,-6.676C4.661,-6.676 2.976,-6.49 1.367,-6.137C1.375,-6.077 1.385,-6.019 1.385,-5.958C1.385,-5.192 0.765,-4.572 0,-4.572C-0.765,-4.572 -1.385,-5.192 -1.385,-5.958C-1.385,-6.723 -0.765,-7.343 0,-7.343M6.4,-1.923C13.358,-1.923 19.262,0.94 21.23,4.872L21.23,-3.25C21.23,-8.193 14.578,-12.215 6.4,-12.215C-1.777,-12.215 -8.429,-8.193 -8.429,-3.25L-8.429,4.872C-6.462,0.94 -0.558,-1.923 6.4,-1.923" style="fill:rgb(242,243,251);fill-rule:nonzero;"/>
    </g>
    <g transform="matrix(1,0,0,1,45.9642,24.368)">
        <path d="M0,11.577C3.822,11.577 7.22,12.103 10.177,12.905C11.41,10.197 12.93,7.931 14.58,6.032C13.307,1.826 7.092,-1.328 -0.001,-1.328C-7.093,-1.328 -13.308,1.825 -14.581,6.031C-12.931,7.931 -11.411,10.197 -10.177,12.905C-7.221,12.103 -3.823,11.577 -0.001,11.577L-0.047,11.577L0,11.577Z" style="fill:rgb(242,243,251);fill-rule:nonzero;"/>
    </g>
    <g transform="matrix(-1,0,0,1,140.631,-227.895)">
        <rect x="94.319" y="228.955" width="0.698" height="10.99" style="fill:rgb(25,53,17);"/>
    </g>
    <g transform="matrix(1,0,0,1,34.21,19.0336)">
        <path d="M0,6.652L0,-3.464C-1.921,-1.952 -3.076,-0.068 -3.076,1.981L-3.076,10.116C-2.735,9.422 -2.268,8.768 -1.705,8.155C-1.212,7.618 -0.641,7.115 0,6.652" style="fill:rgb(188,189,200);fill-rule:nonzero;"/>
    </g>
    <g transform="matrix(0,-1,-1,0,36.0225,9.826)">
        <path d="M-4.888,1.812L5.246,1.812C3.735,3.733 1.85,4.888 -0.199,4.888L-8.321,4.888C-7.042,4.248 -5.879,3.186 -4.888,1.812" style="fill:rgb(188,189,200);fill-rule:nonzero;"/>
    </g>
    <g transform="matrix(1,0,0,1,34.21,34.2361)">
        <path d="M0,-4.609L0,-7.646C-0.472,-7.275 -0.896,-6.882 -1.269,-6.468C-2.001,-5.657 -2.543,-4.776 -2.827,-3.837C-1.824,-2.683 -0.871,-1.391 0,0.05C0.563,0.981 1.093,1.974 1.577,3.037C2.155,2.88 2.755,2.737 3.367,2.604C2.49,-0.208 1.253,-2.634 0,-4.609" style="fill:rgb(188,189,200);fill-rule:nonzero;"/>
    </g>
    <g transform="matrix(1,0,0,1,57.7171,19.0336)">
        <path d="M0,6.652L0,-3.464C1.921,-1.952 3.076,-0.068 3.076,1.981L3.076,10.116C2.735,9.422 2.268,8.768 1.705,8.155C1.212,7.618 0.641,7.115 0,6.652" style="fill:rgb(188,189,200);fill-rule:nonzero;"/>
    </g>
    <g transform="matrix(0,-1,-1,0,62.6056,12.902)">
        <path d="M-1.812,4.888L8.321,4.888C6.81,2.967 4.926,1.812 2.877,1.812L-5.246,1.812C-3.966,2.452 -2.803,3.514 -1.812,4.888" style="fill:rgb(188,189,200);fill-rule:nonzero;"/>
    </g>
    <g transform="matrix(1,0,0,1,57.7171,34.2361)">
        <path d="M0,-4.609L0,-7.646C0.472,-7.275 0.896,-6.882 1.269,-6.468C2.001,-5.657 2.543,-4.776 2.827,-3.837C1.824,-2.683 0.871,-1.391 0,0.05C-0.563,0.981 -1.093,1.974 -1.577,3.037C-2.155,2.88 -2.755,2.737 -3.367,2.604C-2.49,-0.208 -1.253,-2.634 0,-4.609" style="fill:rgb(188,189,200);fill-rule:nonzero;"/>
    </g>
    <g transform="matrix(-1,0,0,1,45.9633,0.3624)">
        <path d="M-15.528,9.663L-14.83,9.663C-14.83,4.72 -8.178,0.698 0,0.698L0,0C-8.562,0 -15.528,4.335 -15.528,9.663" style="fill:rgb(25,53,17);fill-rule:nonzero;"/>
    </g>
    <g transform="matrix(-1,0,0,1,45.9633,11.3528)">
        <path d="M-15.528,9.662L-14.83,9.662C-14.83,4.719 -8.178,0.698 0,0.698L0,0C-8.562,0 -15.528,4.334 -15.528,9.662" style="fill:rgb(25,53,17);fill-rule:nonzero;"/>
    </g>
    <g transform="matrix(0.238874,-0.971051,-0.971051,-0.238874,50.6949,3.89363)">
        <path d="M-3.079,-2.378C-3.003,-0.32 -3.231,1.809 -3.757,3.948L-3.079,4.115C-2.538,1.913 -2.303,-0.281 -2.381,-2.404L-3.079,-2.378Z" style="fill:rgb(25,53,17);fill-rule:nonzero;"/>
    </g>
    <g transform="matrix(0,-1,-1,0,52.3641,5.9323)">
        <path d="M-1.386,-1.386C-0.62,-1.386 -0,-0.765 -0,-0C-0,0.764 -0.62,1.386 -1.386,1.386C-2.151,1.386 -2.771,0.764 -2.771,-0C-2.771,-0.765 -2.151,-1.386 -1.386,-1.386" style="fill:rgb(25,53,17);fill-rule:nonzero;"/>
    </g>
    <g transform="matrix(0.489548,-0.871976,-0.871976,-0.489548,60.6186,22.3742)">
        <path d="M-7.146,-3.99C-3.977,-0.88 -4.239,6.189 -7.755,12.453L-7.146,12.795C-3.42,6.158 -3.214,-1.111 -6.656,-4.488L-7.146,-3.99Z" style="fill:rgb(25,53,17);fill-rule:nonzero;"/>
    </g>
    <g transform="matrix(-1,0,0,1,45.266,0.3624)">
        <path d="M14.132,9.663L14.83,9.663C14.83,4.335 7.864,0 -0.698,0L-0.698,0.698C7.48,0.698 14.132,4.72 14.132,9.663" style="fill:rgb(25,53,17);fill-rule:nonzero;"/>
    </g>
    <g transform="matrix(-1,0,0,1,45.266,11.3528)">
        <path d="M14.132,9.662L14.83,9.662C14.83,4.334 7.864,0 -0.698,0L-0.698,0.698C7.48,0.698 14.132,4.719 14.132,9.662" style="fill:rgb(25,53,17);fill-rule:nonzero;"/>
    </g>
    <g transform="matrix(-0.274721,-0.961524,-0.961524,0.274721,44.3008,9.40177)">
        <path d="M3.15,3.927L3.849,3.927C3.848,1.802 3.532,-0.38 2.909,-2.561L2.238,-2.369C2.843,-0.251 3.15,1.868 3.15,3.927" style="fill:rgb(25,53,17);fill-rule:nonzero;"/>
    </g>
    <g transform="matrix(0,1,1,0,39.5635,5.9323)">
        <path d="M1.386,-1.386C0.62,-1.386 0,-0.765 0,-0C0,0.764 0.62,1.386 1.386,1.386C2.151,1.386 2.771,0.764 2.771,-0C2.771,-0.765 2.151,-1.386 1.386,-1.386" style="fill:rgb(25,53,17);fill-rule:nonzero;"/>
    </g>
    <g transform="matrix(-0.965061,-0.262027,-0.262027,0.965061,46.1222,24.3145)">
        <path d="M12.642,9.903L13.34,9.903C13.344,5.08 8.015,0.132 0.67,-1.862L0.487,-1.188C7.419,0.694 12.645,5.462 12.642,9.903" style="fill:rgb(25,53,17);fill-rule:nonzero;"/>
    </g>
    <g transform="matrix(1,0,0,1,61.4913,0.3623)">
        <path d="M0,30.105L-0.698,30.105L-0.698,9.663C-0.698,4.72 -7.35,0.698 -15.528,0.698L-15.528,0C-6.966,0 0,4.335 0,9.663L0,30.105Z" style="fill:rgb(25,53,17);fill-rule:nonzero;"/>
    </g>
    <g transform="matrix(1,0,0,1,31.134,0.3623)">
        <path d="M0,30.105L-0.698,30.105L-0.698,9.663C-0.698,4.335 6.268,0 14.83,0L14.83,0.698C6.652,0.698 0,4.72 0,9.663L0,30.105Z" style="fill:rgb(25,53,17);fill-rule:nonzero;"/>
    </g>
    <g transform="matrix(1,0,0,1,65.7171,71.2449)">
        <path d="M0,-28.983C4.307,-26.202 6.48,-23.384 6.502,-23.356L6.772,-23.002L6.857,-23.107L24.042,-12.404L10.852,-5.8L20.58,0.228L7.676,3.383L-0.986,5.619C2.806,2.383 2.339,-1.086 2.199,-1.903C1.301,-7.133 3.631,-9.385 2.191,-9.562C3.863,-14.156 3.481,-18.74 1.122,-22.197C-1.087,-25.438 -4.761,-27.296 -8.955,-27.296C-15.538,-27.296 -18.783,-22.927 -19.751,-21.326C-19.752,-21.327 -19.752,-21.328 -19.753,-21.329L-19.753,-34.602C-10.619,-34.602 -3.97,-31.546 0,-28.983" style="fill:rgb(103,193,79);fill-rule:nonzero;"/>
    </g>
    <g transform="matrix(0.43716,-0.899384,-0.899384,-0.43716,74.6531,76.202)">
        <path d="M0.865,1.822C0.865,1.822 -5.394,8.486 -5.463,8.895C-5.463,8.895 -1.302,6.912 0.865,8.046L9.344,-8.405L0.865,1.822Z" style="fill:rgb(49,108,36);fill-rule:nonzero;"/>
    </g>
    <g transform="matrix(1,0,0,1,76.5688,63.1967)">
        <path d="M0,2.248L-8.701,6.604C-9.314,4.741 -10.458,2.176 -10.458,2.176C-10.458,2.176 -9.36,-0.544 -8.661,-1.513L13.191,-4.356L0,2.248Z" style="fill:rgb(49,108,36);fill-rule:nonzero;"/>
    </g>
    <g transform="matrix(0.971383,-0.237521,-0.237521,-0.971383,63.8226,80.8776)">
        <path d="M-0.374,3.1L25.73,3.1" style="fill:none;fill-rule:nonzero;"/>
    </g>
    <g transform="matrix(0,-1,-1,0,56.63,55.188)">
        <path d="M-4.513,-4.513C-7.906,-4.513 -10.656,-2.493 -10.656,0C-10.656,2.492 -7.906,4.513 -4.513,4.513C-1.12,4.513 1.63,2.492 1.63,0C1.63,-2.493 -1.12,-4.513 -4.513,-4.513" style="fill:rgb(25,53,17);fill-rule:nonzero;"/>
    </g>
    <g transform="matrix(0,-1,1,0,55.6524,56.6178)">
        <path d="M-1.305,-1.305C-2.287,-1.305 -3.082,-0.72 -3.082,0.001C-3.082,0.722 -2.287,1.305 -1.305,1.305C-0.323,1.305 0.472,0.722 0.472,0.001C0.472,-0.72 -0.323,-1.305 -1.305,-1.305" style="fill:white;fill-rule:nonzero;"/>
    </g>
    <g transform="matrix(0,-1,-1,0,62.8895,66.9376)">
        <path d="M-3.196,-3.196C-4.493,-3.196 -5.544,-1.765 -5.544,-0.001C-5.544,1.765 -4.493,3.196 -3.196,3.196C-1.899,3.196 -0.848,1.765 -0.848,-0.001C-0.848,-1.765 -1.899,-3.196 -3.196,-3.196" style="fill:rgb(253,213,181);fill-rule:nonzero;"/>
    </g>
    <g transform="matrix(1,0,0,1,63.0983,47.3814)">
        <path d="M0,30.482L24.981,24.374L14.901,18.128L28.089,11.526L9.583,0L9.214,0.593L26.661,11.459L13.47,18.063L23.199,24.091L1.205,29.468" style="fill:rgb(25,53,17);fill-rule:nonzero;"/>
    </g>
    <g transform="matrix(0.998863,0.0476737,0.0476737,-0.998863,74.5617,49.1885)">
        <path d="M0.678,-0.177C8.733,12.967 1.377,27.988 1.302,28.138L0.678,27.826C0.751,27.679 7.931,12.996 0.083,0.188L0.678,-0.177Z" style="fill:rgb(25,53,17);fill-rule:nonzero;"/>
    </g>
    <g transform="matrix(1,0,0,1,45.9637,60.6486)">
        <path d="M0,20.999C4.795,20.999 20.569,20.301 22.188,11.322C22.792,7.975 21.086,5.371 20.566,4.673C20.88,3.946 21.585,2.16 22.232,0.231L21.546,0C20.835,2.12 20.058,4.054 19.818,4.572L19.722,4.78L19.869,4.956C19.892,4.983 22.108,7.689 21.475,11.193C21.091,13.324 18.408,20.275 0,20.275L0,20.999Z" style="fill:rgb(25,53,17);fill-rule:nonzero;"/>
    </g>
    <g transform="matrix(1,0,0,1,67.5507,76.4283)">
        <path d="M0,-5.657C-0.312,-3.827 -2.829,-0.366 -10.116,-0.366C-17.351,-0.366 -21.256,-5.565 -21.294,-5.618L-21.587,-6.015L-21.88,-5.618C-21.918,-5.565 -25.823,-0.366 -33.057,-0.366C-40.345,-0.366 -42.862,-3.827 -43.174,-5.657L-43.888,-5.535C-43.54,-3.497 -40.829,0.358 -33.057,0.358C-26.491,0.358 -22.632,-3.594 -21.587,-4.828C-20.542,-3.594 -16.682,0.358 -10.116,0.358C-2.345,0.358 0.366,-3.497 0.714,-5.535L0,-5.657Z" style="fill:rgb(25,53,17);fill-rule:nonzero;"/>
    </g>
    <g transform="matrix(1,0,0,1,61.4917,38.4166)">
        <path d="M0,-8.035C5.959,-14.588 13.443,-16.394 15.107,-16.725C17.544,-1.857 12.24,6.88 10.989,8.69C10.259,7.828 8.168,5.564 4.632,3.276C2.37,1.813 -0.742,0.194 -4.671,-0.953C-3.39,-3.738 -1.799,-6.041 -0.079,-7.949L0,-7.949L0,-8.035Z" style="fill:rgb(245,224,151);fill-rule:nonzero;"/>
    </g>
    <g transform="matrix(-0.979224,-0.202781,-0.202781,0.979224,73.5174,48.2926)">
        <path d="M0.648,-23.804C-1.76,-19.075 -5.27,-9.609 -1.376,0.154L0.648,-0.591C0.267,-1.455 -0.664,-3.864 -1.096,-7.598C-1.52,-11.278 -1.491,-16.892 0.648,-23.804" style="fill:rgb(49,108,36);fill-rule:nonzero;"/>
    </g>
    <g transform="matrix(1,0,0,1,61.4123,29.3223)">
        <path d="M0,1.145L0.079,1.145L0.079,1.059C6.038,-5.493 13.522,-7.3 15.186,-7.631C15.186,-7.631 2.522,-3.379 -2.645,8.776C-3.272,8.554 -3.915,8.339 -4.591,8.142C-3.31,5.357 -1.72,3.053 0,1.145" style="fill:rgb(254,254,184);fill-rule:nonzero;"/>
    </g>
    <g transform="matrix(0,1,1,0,45.9638,62.0806)">
        <path d="M3.763,-3.763C2.375,-3.763 1.25,-2.078 1.25,0C1.25,2.078 2.375,3.763 3.763,3.763C5.151,3.763 6.276,2.078 6.276,0C6.276,-2.078 5.151,-3.763 3.763,-3.763" style="fill:rgb(25,53,17);fill-rule:nonzero;"/>
    </g>
    <g transform="matrix(1,0,0,1,45.9661,56.3674)">
        <path d="M0,-6.448C0.968,-8.049 4.213,-12.419 10.796,-12.419C14.99,-12.419 18.664,-10.561 20.873,-7.32C23.232,-3.862 23.614,0.721 21.942,5.316L20.941,5.971L21.127,5.498C22.901,0.976 22.598,-3.553 20.296,-6.927C18.218,-9.974 14.756,-11.721 10.796,-11.721C3.289,-11.721 0.432,-5.828 0.314,-5.577L0.219,-5.375L-0.002,-5.375L-0.002,-6.451C-0.001,-6.45 -0.001,-6.449 0,-6.448" style="fill:rgb(25,53,17);fill-rule:nonzero;"/>
    </g>
    <g transform="matrix(1,0,0,1,56.8212,31.6699)">
        <path d="M0,5.794C5.728,-6.66 17.625,-9.551 19.778,-9.978C22.215,4.889 16.911,13.626 15.66,15.436C14.929,14.575 12.838,12.311 9.302,10.023C7.041,8.56 3.928,6.94 0,5.794M-0.68,5.603C-3.637,4.801 -7.035,4.275 -10.857,4.275L-10.857,4.973C-1.723,4.973 4.926,8.029 8.896,10.592C13.203,13.373 15.376,16.191 15.398,16.219L15.667,16.573L15.948,16.227C16.024,16.132 17.84,13.85 19.31,9.404C20.66,5.318 21.947,-1.443 20.407,-10.444L20.35,-10.779L20.013,-10.73C19.869,-10.709 5.735,-8.481 -0.68,5.603" style="fill:rgb(25,53,17);fill-rule:nonzero;"/>
    </g>
    <g transform="matrix(0.894201,0.447666,0.447666,-0.894201,16.7941,63.7276)">
        <path d="M-0.515,-2.178L9.216,-2.178" style="fill:none;fill-rule:nonzero;"/>
    </g>
    <g transform="matrix(1,0,0,1,45.9637,57.3777)">
        <path d="M0,5.953C2.078,5.953 3.763,7.078 3.763,8.466C3.763,9.854 2.078,10.979 0,10.979C-2.078,10.979 -3.763,9.854 -3.763,8.466C-3.763,7.078 -2.078,5.953 0,5.953M10.666,-3.82C13.158,-3.82 15.179,-1.07 15.179,2.323C15.179,5.716 13.158,8.466 10.666,8.466C8.174,8.466 6.154,5.716 6.154,2.323C6.154,-1.07 8.174,-3.82 10.666,-3.82M20.121,12.755C20.121,14.052 18.691,15.104 16.926,15.104C15.161,15.104 13.73,14.052 13.73,12.755C13.73,11.458 15.161,10.407 16.926,10.407C18.691,10.407 20.121,11.458 20.121,12.755M-10.666,8.466C-13.158,8.466 -15.179,5.716 -15.179,2.323C-15.179,-1.07 -13.158,-3.82 -10.666,-3.82C-8.174,-3.82 -6.153,-1.07 -6.153,2.323C-6.153,5.716 -8.174,8.466 -10.666,8.466M-16.926,15.104C-18.69,15.104 -20.121,14.052 -20.121,12.755C-20.121,11.458 -18.69,10.407 -16.926,10.407C-15.161,10.407 -13.73,11.458 -13.73,12.755C-13.73,14.052 -15.161,15.104 -16.926,15.104M0,-6.385L-0.221,-6.385L-0.316,-6.587C-0.434,-6.838 -3.291,-12.731 -10.798,-12.731C-14.758,-12.731 -18.221,-10.984 -20.299,-7.937C-22.394,-4.865 -22.827,-0.837 -21.55,3.273L-21.546,3.271C-21.387,3.745 -21.225,4.207 -21.066,4.649L-20.943,4.961L-20.956,4.953C-20.448,6.346 -19.992,7.468 -19.818,7.843L-19.722,8.051L-19.869,8.227C-19.889,8.251 -21.675,10.443 -21.578,13.43C-21.24,15.269 -18.712,18.684 -11.47,18.684C-4.236,18.684 -0.331,13.486 -0.293,13.433L0,13.036L0.293,13.433C0.331,13.486 4.236,18.684 11.471,18.684C18.712,18.684 21.241,15.269 21.578,13.43C21.675,10.443 19.89,8.251 19.869,8.227L19.722,8.051L19.818,7.843C19.992,7.468 20.448,6.346 20.956,4.953L20.944,4.961L21.066,4.649C21.225,4.207 21.387,3.745 21.546,3.271L21.55,3.273C22.827,-0.837 22.394,-4.865 20.299,-7.937C18.221,-10.984 14.758,-12.731 10.798,-12.731C3.291,-12.731 0.434,-6.838 0.316,-6.587L0.221,-6.385L0,-6.385L0,-7.462L0,-6.909L0,-7.462L0,-6.385Z" style="fill:rgb(254,254,184);fill-rule:nonzero;"/>
    </g>
    <g transform="matrix(1,0,0,1,57.4343,75.738)">
        <path d="M0,1.048C-6.566,1.048 -10.425,-2.903 -11.471,-4.137C-12.516,-2.903 -16.375,1.048 -22.941,1.048C-27.973,1.048 -30.875,-0.568 -32.396,-2.261C-30.996,0.603 -26.417,5.185 -11.471,5.185C3.476,5.185 8.055,0.603 9.455,-2.261C7.934,-0.568 5.032,1.048 0,1.048" style="fill:rgb(245,224,151);fill-rule:nonzero;"/>
    </g>
    <g transform="matrix(1,0,0,1,45.964,50.993)">
        <path d="M0,-1.077L-0.14,-0.686L0,0L0.072,0L0.18,-0.621L0,-1.077Z" style="fill:rgb(25,53,17);fill-rule:nonzero;"/>
    </g>
    <g transform="matrix(1,0,0,1,4.773,10.401)">
        <path d="M0,61.207L23.087,66.853L23.141,66.889C28.454,70.495 37.534,70.884 41.19,70.884C44.847,70.884 53.928,70.495 59.241,66.889L59.358,66.838L82.382,61.207L72.484,55.074L85.674,48.471L70.146,38.801L70.352,38.491C78.455,26.198 72.378,11.546 72.116,10.928L72.103,10.899C71.772,10.952 63.579,12.346 56.979,19.215L56.356,19.864L56.356,-0.375C56.356,-5.504 49.553,-9.676 41.19,-9.676C32.828,-9.676 26.025,-5.504 26.025,-0.375L26.025,19.863L25.402,19.215C18.809,12.354 10.629,10.955 10.278,10.899L10.266,10.928C10.003,11.546 3.926,26.198 12.03,38.491L12.235,38.801L-3.292,48.471L9.897,55.074L0,61.207ZM41.191,71.608C37.479,71.608 28.275,71.21 22.789,67.526L-1.849,61.501L8.413,55.142L-4.773,48.54L11.224,38.578C3.337,26.225 9.147,11.727 9.583,10.684L9.688,10.08L10.373,10.181C10.458,10.193 18.533,11.469 25.301,18.084L25.301,-0.375C25.301,-5.903 32.429,-10.401 41.19,-10.401C49.952,-10.401 57.08,-5.903 57.08,-0.375L57.08,18.085C63.848,11.469 71.924,10.193 72.007,10.181L72.694,10.08L72.798,10.684C73.235,11.727 79.045,26.225 71.158,38.578L87.154,48.54L73.968,55.142L84.23,61.501L59.593,67.526C54.107,71.21 44.903,71.608 41.191,71.608" style="fill:rgb(25,53,17);fill-rule:nonzero;"/>
    </g>
</svg>
