<?xml version="1.0" encoding="utf-8"?>
<!-- Generator: Adobe Illustrator 26.2.1, SVG Export Plug-In . SVG Version: 6.00 Build 0)  -->
<svg version="1.1" id="Layer_1" xmlns="http://www.w3.org/2000/svg" xmlns:xlink="http://www.w3.org/1999/xlink" x="0px" y="0px"
	 viewBox="0 0 256 256" style="enable-background:new 0 0 256 256;" xml:space="preserve">
<style type="text/css">
	.st0{fill:#F8DF5F;}
	.st1{fill:#6B9C09;}
	.st2{fill:#FFD588;}
	.st3{fill:#BFF0D6;}
	.st4{fill:#292E32;}
	.st5{fill:#97A8B4;}
	.st6{fill:#FF9DB6;}
	.st7{fill:#FFFFFF;}
</style>
<path class="st0" d="M115,19.9c9.3-0.1,18.6,0,27.9,0c0.9,1,1.8,2,2.6,3c-0.2,7-0.4,14-0.2,21.1c0,3.4,0.4,6.5-2.1,9.2
	c-2.6,3-6.7,2.4-10.3,2.5c-5.6-0.2-11.3,0.2-16.8-0.2c-3.8-0.3-6.5-3.8-6.6-7.5c-0.2-8.4,0.4-16.8-0.5-25.2
	C110.9,21.3,112.2,19.7,115,19.9z"/>
<path class="st1" d="M109.1,22.9c0.9,8.4,0.3,16.8,0.5,25.2c0.1,3.7,2.8,7.2,6.6,7.5c5.6,0.4,11.2,0,16.8,0.2
	c3.6-0.1,7.6,0.5,10.3-2.5c2.5-2.7,2.1-5.8,2.1-9.2c-0.2-7,0-14,0.2-21.1c10.5,1,19.3,5.4,28.6,9.9c5.4,2.7,10.4,6.1,15.7,9.2
	c6-1.4,12.1-2.7,18.1-3.7c6.1-0.9,11.8-1.8,17.9-0.4c-4.7,0.9-9.3,1.8-13.3,4.5c-4.2,2.4-7,6.1-9.6,10c-2.4-2.4-4.9-4.6-7.7-6.5
	c-14.1,8.5-22.4,24.3-27.7,39.4c-11.8,4-20.6,12.7-26.8,23.3c-7.5,12.6-10.4,26.3-12.4,40.7l-0.4,0l-1.4,0
	c-1.5-8.4-2.5-16.6-5.3-24.7c-3.7-11.2-9.8-22.5-18.7-30.4c-4.4-3.9-9.6-7-15.2-8.9c-4.4-12.1-10.2-24.3-19.6-33.3
	c-2.5-2.4-5.3-4.5-8.4-6.1c-2.6,2-5,4.2-7.4,6.5c-2.6-3.7-5.2-7.1-9-9.6c-4.2-2.9-8.9-3.9-13.8-4.8c2.5-0.8,5.1-1.2,7.7-1
	c9.4,0.5,19,2.8,28.2,4.9c5.1-3.2,10.2-6.5,15.6-9.2C89.9,28.3,98.7,24,109.1,22.9z"/>
<path class="st2" d="M29.3,38.1c4.9,0.9,9.6,1.9,13.8,4.8c3.8,2.5,6.4,6,9,9.6c-4.1,3.9-8.1,7.5-11.3,12.3c-5,7.7-9.3,16-12.3,24.6
	C27.6,85,27,80.5,26.9,76c-0.3-9-0.8-18.1-0.1-27C27,45.4,27.5,41.3,29.3,38.1z"/>
<path class="st2" d="M225.9,38l0.2,0.4c1.6,4.4,2.1,9,2.2,13.6c0.2,9.3,0,18.7-0.4,28c-0.1,3.3-0.8,6.4-1.5,9.6
	c-2.8-8.8-7.1-17.1-12.1-24.7c-3.1-4.8-7.2-8.4-11.3-12.3c2.6-4,5.5-7.6,9.6-10C216.6,39.8,221.1,38.9,225.9,38z"/>
<path class="st3" d="M59.5,46c3.1,1.6,5.9,3.7,8.4,6.1c9.4,9,15.2,21.2,19.6,33.3C78.2,83,69.2,84.1,61,88.9
	c-13.2,7.7-21.7,22.1-26.2,36.3c-4.3-2.7-8.3-5.7-12.1-9c1.6-4.6,1.7-9.7,3.2-14.4c1.3-4.1,2.5-8.1,2.6-12.5c3-8.7,7.3-17,12.3-24.6
	c3.1-4.8,7.1-8.4,11.3-12.3C54.4,50.3,56.8,48,59.5,46z"/>
<path class="st3" d="M195.2,46c2.8,1.9,5.3,4.2,7.7,6.5c4.1,4,8.1,7.5,11.3,12.3c5.1,7.7,9.3,16,12.1,24.7
	c0.3,5.5,2.6,10.1,3.7,15.4c0.8,3.8,1.5,7.7,2.2,11.5c-3.9,3.1-7.8,6.1-12,8.7c-4.6-13.9-12.7-28.1-25.6-35.8
	c-8.3-5.1-17.7-6.5-27.1-4C172.8,70.3,181.1,54.5,195.2,46z"/>
<path class="st0" d="M127,72.7c4.1,0.4,11-1.2,13.9,2.4c2.7,2.6,2.1,6.6,2.2,9.9c-0.2,3.3,0.4,6.4-2.3,8.8
	c-3.1,3.2-9.7,1.9-13.8,2.2c-3.9-0.2-9.9,0.9-12.8-2.2c-2.7-2.2-2.2-5.7-2.4-8.8c0.1-3.3-0.3-7.4,2.3-9.9
	C116.8,71.7,123.1,73,127,72.7z"/>
<path class="st2" d="M87.4,85.5c5.6,1.9,10.8,5,15.2,8.9c8.9,7.9,15,19.2,18.7,30.4c2.8,8.1,3.8,16.3,5.3,24.7
	c-4,0.1-8.8-0.1-12.5,1.6c-3.4,1.7-3.1,5.4-2.5,8.6c1.3,4.8,4.8,9.1,8.6,12.3c3.5,2.8,8.4,4.7,12.5,1.7c4.7-3.4,9.4-8.5,10.8-14.2
	c0.5-2.8,0.9-6.3-1.9-7.9c-3.7-2.2-9-2-13.1-2.1c1.9-14.4,4.9-28.1,12.4-40.7c6.1-10.6,15-19.3,26.8-23.3c9.4-2.5,18.8-1.1,27.1,4
	c12.9,7.8,21,21.9,25.6,35.8c0.7,2.3,1.4,4.6,2,6.9c-15.3,5-30.5,10.4-45.9,15.2c-2.5,1-5.4,1.5-5.7,4.7c0.5,1.2,1.3,2.2,2.4,3
	c2.3,0,4.3-0.7,6.4-1.4c14.7-5.1,29.4-9.9,44.1-14.9c0.4,3.3,0.8,6.6,1.2,9.9c-8.5,2.2-17.2,3.6-25.8,5.4c-9.3,2-18.7,3.8-28.1,5.6
	c-2.1,0.6-5.5,0.8-6.1,3.4c-0.8,1.3,1.2,3.2,2.2,3.8c3.3,0.1,6.8-0.9,10.1-1.5c16-3.1,32-6.7,48-9.5c0.1,8.6-1,17.2-2.7,25.6
	c-1.5,7.3-4.3,13.9-7.3,20.8c-4.8,7.6-12.6,13.9-19.6,19.5c-18.9,14.1-41.2,23.3-64.7,25.5c-7.9,0.9-16.4-1.1-24.2-2.8
	c-22.6-5.7-43.9-17.4-60.4-33.9c-2.6-2.5-4.9-5.3-6.8-8.4c-2.9-7-5.9-13.7-7.3-21.2c-1.5-8.4-2.8-16.7-2.5-25.3
	c18,3.5,36,7.3,54,10.9c1.7,0.1,3.9,0.9,5.2-0.6c1.5-1.4,1.6-3.7-0.2-4.8c-2.1-1.1-4.6-1.4-6.9-1.9c-12.8-2.4-25.5-5.1-38.3-7.6
	c-4.6-0.9-9-2.1-13.6-2.5c0.4-3.5,0.9-6.9,1.4-10.3c14.2,4.9,28.5,9.4,42.6,14.4c2.3,0.8,4.7,1.7,7.1,1.9c2.4-0.3,4.2-3.4,2.3-5.4
	c-2.6-1.9-6.3-2.6-9.3-3.7c-13.8-4.5-27.5-9.2-41.3-13.8c0.6-2.3,1.3-4.6,2-6.9c4.5-14.2,13-28.6,26.2-36.3
	C69.2,84.1,78.2,83,87.4,85.5z"/>
<path class="st4" d="M90.4,102.4c3.3-1.2,5.1,1.1,6.5,3.7c3.4,7.2,3.6,16,1.9,23.7c-0.9,3.2-2.4,7.9-5.8,9.2
	c-3.1,0.7-5.1-2.3-6.3-4.7c-2.9-6.6-3.2-14.5-1.9-21.6C85.5,109.3,87,104.2,90.4,102.4z"/>
<path class="st4" d="M161.3,102.2c1.6-0.3,3.2-0.1,4.4,1c2.5,2.4,3.7,6.3,4.4,9.6c1.4,7,1,14.9-1.9,21.5c-1.1,2.3-3.2,5.4-6.2,4.8
	c-3-1.2-4.6-4.7-5.5-7.6c-1.9-6.2-1.9-13.1-0.6-19.4C156.8,108.6,158.3,104.3,161.3,102.2z"/>
<path class="st1" d="M22.6,116.3c3.8,3.3,7.8,6.2,12.1,9c-0.7,2.3-1.4,4.6-2,6.9c-2-0.4-5.1-2-6.6,0c-1.3,1.1-1.6,2.8-0.3,4
	c1.6,1.2,3.7,1.9,5.5,2.6c-0.5,3.4-1,6.9-1.4,10.3c-1-0.1-2-0.1-3.1-0.2c-1.9,2.2-1.6,3.3-1.2,6c1.4,0.3,2.8,0.5,4.1,0.8
	c-0.3,8.5,1,16.9,2.5,25.3c1.4,7.5,4.4,14.2,7.3,21.2c-7.9,0.1-13.9,3.7-20.6,7.2c2.4-2.9,4.9-5.4,6.6-8.8
	c4.8-9.6,3.1-21.9-4.7-29.5c-4.1-4.4-9.3-6.2-14.9-7.8c4.8-5.7,7.3-12.4,10.1-19.2c2.8-7.2,3.3-15.6,4.2-23.1
	C20.5,119.2,21.7,117.8,22.6,116.3z"/>
<path class="st1" d="M232.2,116.5c0.7,0.9,1.4,1.7,2,2.6c0.7,6.3,1.5,12.7,2.7,18.9c1,5.3,3.6,10.2,5.7,15.3
	c1.5,3.6,3.7,6.8,6.3,9.8c-4.1,1.4-8.3,2.5-11.8,5.2c-8.9,6.6-13,18.2-9.4,28.8c1.5,5,4.7,8.3,8,12.2c-6.3-3.5-13.1-7.4-20.5-7
	c2.9-6.8,5.8-13.4,7.3-20.8c1.7-8.4,2.8-17,2.7-25.6c2.1-0.6,5.4-1.7,4.4-4.5c-0.8-2.3-2.3-2-4.3-2.6l-0.5-0.1
	c-0.4-3.3-0.8-6.6-1.2-9.9c2.4-1.1,5.9-1.6,6.4-4.7c-0.6-1.2-1.3-2.2-2.3-3c-1.9,0.1-3.7,0.6-5.5,1.1c-0.6-2.3-1.3-4.6-2-6.9
	C224.4,122.6,228.4,119.6,232.2,116.5z"/>
<path class="st5" d="M32.7,132.1c13.8,4.6,27.5,9.3,41.3,13.8c3,1.1,6.7,1.8,9.3,3.7c1.9,2,0.1,5-2.3,5.4c-2.4-0.2-4.8-1.1-7.1-1.9
	c-14.2-4.9-28.5-9.5-42.6-14.4c-1.9-0.7-3.9-1.4-5.5-2.6c-1.3-1.2-1-2.9,0.3-4C27.6,130.1,30.7,131.7,32.7,132.1z"/>
<path class="st5" d="M227.8,131.1c1,0.9,1.7,1.8,2.3,3c-0.4,3.1-4,3.6-6.4,4.7c-14.7,5-29.5,9.8-44.1,14.9c-2.1,0.7-4.1,1.4-6.4,1.4
	c-1.2-0.7-1.9-1.7-2.4-3c0.3-3.2,3.2-3.7,5.7-4.7c15.4-4.9,30.6-10.2,45.9-15.2C224.1,131.6,225.9,131.1,227.8,131.1z"/>
<path class="st5" d="M26.9,148.9c1,0,2,0.1,3.1,0.2c4.5,0.5,9,1.6,13.6,2.5c12.8,2.5,25.5,5.3,38.3,7.6c2.3,0.5,4.8,0.8,6.9,1.9
	c1.9,1.1,1.7,3.4,0.2,4.8c-1.3,1.6-3.5,0.8-5.2,0.6c-18-3.6-36-7.3-54-10.9c-1.4-0.3-2.8-0.6-4.1-0.8
	C25.3,152.2,25,151.1,26.9,148.9z"/>
<path class="st6" d="M128,149.4l0.4,0c4.1,0.1,9.5-0.1,13.1,2.1c2.8,1.7,2.4,5.2,1.9,7.9c-1.5,5.8-6.1,10.8-10.8,14.2
	c-4,3-8.9,1-12.5-1.7c-3.8-3.2-7.3-7.5-8.6-12.3c-0.6-3.2-0.8-6.9,2.5-8.6c3.7-1.7,8.5-1.5,12.5-1.6L128,149.4z"/>
<path class="st5" d="M224.9,148.7l0.5,0.1c2,0.6,3.5,0.3,4.3,2.6c0.9,2.8-2.3,3.9-4.4,4.5c-16.1,2.9-32,6.4-48,9.5
	c-3.3,0.6-6.8,1.6-10.1,1.5c-1.1-0.6-3.1-2.5-2.2-3.8c0.6-2.6,4-2.8,6.1-3.4c9.4-1.8,18.8-3.6,28.1-5.6
	C207.6,152.2,216.4,150.9,224.9,148.7z"/>
<path class="st4" d="M53.5,173.5c22.5,5.8,45.3,10,68.5,11.3c7.6,0.5,15.4-0.2,23-0.9c17.6-1.6,34.7-4.9,51.8-9.2
	c2.6-0.6,5.3-1.7,7.9-1.6c1,0.9,1.9,1.9,2.9,2.8c-12.5,17.7-28.1,34.7-46.8,45.9c-8.8,4.7-17.7,8.8-27.7,10.4
	c-9.3,1.6-19.6-1.4-28.1-5.1c-19.6-8-36.4-24.2-49.5-40.5c-2.4-3.3-5.8-6.6-7-10.5C49.1,173.3,51,172.8,53.5,173.5z"/>
<path class="st7" d="M68.8,181.6c5.1,2,10.2,3.7,15.5,5.2c11.9,3.3,24.4,6,36.8,6.5c22,1.2,44.8-4.1,65.3-11.6
	c-0.4,4-0.6,8.2-1.6,12.2c-0.6,2.2-1.6,4.4-3.6,5.7c-5.2,0.3-9.2-3-13.1-5.9c-10.9,5.3-22.6,9.3-34.6,11.5c-3.5,0.6-7,0.8-10.5,0.2
	c-12.5-2.1-24.7-6.2-36.1-11.8c-3.6,2.7-7.2,5.8-12,6c-1.4,0.2-2.6-1.1-3.3-2.2C69.2,192.9,69.1,186.6,68.8,181.6z"/>
</svg>
